<svg width="32" height="32" viewBox="0 0 24 24" fill="none" xmlns="http://www.w3.org/2000/svg">
    <defs>
        <linearGradient id="fireGradient" x1="12" y1="2" x2="12" y2="22" gradientUnits="userSpaceOnUse">
            <stop stop-color="#FF8C5A" />
            <stop offset="0.5" stop-color="#FF6B35" />
            <stop offset="1" stop-color="#E63946" />
        </linearGradient>
    </defs>
    <path d="M11.66 2.394A.5.5 0 0 0 11 2.5a10.024 10.024 0 0 0-4.912 3.864c-1.353 1.956-1.574 4.195-.44 6.22C6.182 11.235 6.812 9.878 7.9 8.76a.5.5 0 0 1 .863.385c-.29 2.57 1.056 5.152 3.42 6.575a.5.5 0 0 0 .762-.516c-.201-1.39.29-2.73 1.258-3.666a.5.5 0 0 1 .828.487c-.367 1.83.332 3.637 1.704 4.885.127-1.161-.067-2.318-.54-3.325-.333-.703-.842-1.325-1.517-1.78a.5.5 0 0 1 .158-.87A6.452 6.452 0 0 0 16.942 9.2c1.033 1.933.916 4.341-.56 6.136a8.47 8.47 0 0 1-5.115 3.12 8.421 8.421 0 0 1-5.632-1.581c-1.921-1.425-3.08-3.791-2.924-6.19a9.558 9.558 0 0 1 2.373-5.71 11.028 11.028 0 0 1 5.372-3.804A11.66 11.66 0 0 1 11.66 2.39z" fill="url(#fireGradient)"/>
</svg>
